<?xml version="1.0" encoding="UTF-8" standalone="no"?><svg xmlns="http://www.w3.org/2000/svg" xmlns:xlink="http://www.w3.org/1999/xlink" contentScriptType="application/ecmascript" contentStyleType="text/css" height="368px" preserveAspectRatio="none" style="width:272px;height:368px;background:#FFFFFF;" version="1.1" viewBox="0 0 272 368" width="272px" zoomAndPan="magnify"><defs><filter height="300%" id="f76x414hcwpzf" width="300%" x="-1" y="-1"><feGaussianBlur result="blurOut" stdDeviation="2.0"/><feColorMatrix in="blurOut" result="blurOut2" type="matrix" values="0 0 0 0 0 0 0 0 0 0 0 0 0 0 0 0 0 0 .4 0"/><feOffset dx="4.0" dy="4.0" in="blurOut2" result="blurOut3"/><feBlend in="SourceGraphic" in2="blurOut3" mode="normal"/></filter></defs><g><ellipse cx="123" cy="20" fill="#000000" filter="url(#f76x414hcwpzf)" rx="10" ry="10" style="stroke:none;stroke-width:1.0;"/><rect fill="#FEFECE" filter="url(#f76x414hcwpzf)" height="36.3887" rx="12.5" ry="12.5" style="stroke:#A80036;stroke-width:1.5;" width="140" x="53" y="50"/><text fill="#000000" font-family="sans-serif" font-size="12" lengthAdjust="spacing" textLength="120" x="63" y="73.752">传入头结点与目标元素</text><polygon fill="#FEFECE" filter="url(#f76x414hcwpzf)" points="84.5,106.3887,161.5,106.3887,173.5,118.3887,161.5,130.3887,84.5,130.3887,72.5,118.3887,84.5,106.3887" style="stroke:#A80036;stroke-width:1.5;"/><text fill="#000000" font-family="sans-serif" font-size="11" lengthAdjust="spacing" textLength="77" x="84.5" y="123.4832">链表是否为空？</text><text fill="#000000" font-family="sans-serif" font-size="11" lengthAdjust="spacing" textLength="18" x="54.5" y="115.9717">yes</text><text fill="#000000" font-family="sans-serif" font-size="11" lengthAdjust="spacing" textLength="12" x="173.5" y="115.9717">no</text><rect fill="#FEFECE" filter="url(#f76x414hcwpzf)" height="36.3887" rx="12.5" ry="12.5" style="stroke:#A80036;stroke-width:1.5;" width="68" x="27" y="140.3887"/><text fill="#000000" font-family="sans-serif" font-size="12" lengthAdjust="spacing" textLength="48" x="37" y="164.1406">退出程序</text><ellipse cx="61" cy="207.7773" fill="#FFFFFF" filter="url(#f76x414hcwpzf)" rx="11" ry="11" style="stroke:#000000;stroke-width:1.0;"/><ellipse cx="61" cy="207.7773" fill="#000000" rx="6" ry="6" style="stroke:#7F7F7F;stroke-width:1.0;"/><rect fill="#FEFECE" filter="url(#f76x414hcwpzf)" height="36.3887" rx="12.5" ry="12.5" style="stroke:#A80036;stroke-width:1.5;" width="140" x="115" y="140.3887"/><text fill="#000000" font-family="sans-serif" font-size="12" lengthAdjust="spacing" textLength="120" x="125" y="164.1406">从头结点开始逐级遍历</text><polygon fill="#FEFECE" filter="url(#f76x414hcwpzf)" points="79,238.7773,167,238.7773,179,250.7773,167,262.7773,79,262.7773,67,250.7773,79,238.7773" style="stroke:#A80036;stroke-width:1.5;"/><text fill="#000000" font-family="sans-serif" font-size="11" lengthAdjust="spacing" textLength="88" x="79" y="255.8718">是否找到目标元素</text><text fill="#000000" font-family="sans-serif" font-size="11" lengthAdjust="spacing" textLength="18" x="49" y="248.3604">yes</text><text fill="#000000" font-family="sans-serif" font-size="11" lengthAdjust="spacing" textLength="12" x="179" y="248.3604">no</text><rect fill="#FEFECE" filter="url(#f76x414hcwpzf)" height="36.3887" rx="12.5" ry="12.5" style="stroke:#A80036;stroke-width:1.5;" width="92" x="11" y="272.7773"/><text fill="#000000" font-family="sans-serif" font-size="12" lengthAdjust="spacing" textLength="72" x="21" y="296.5293">返回当前结点</text><ellipse cx="57" cy="340.166" fill="#FFFFFF" filter="url(#f76x414hcwpzf)" rx="11" ry="11" style="stroke:#000000;stroke-width:1.0;"/><ellipse cx="57" cy="340.166" fill="#000000" rx="6" ry="6" style="stroke:#7F7F7F;stroke-width:1.0;"/><rect fill="#FEFECE" filter="url(#f76x414hcwpzf)" height="36.3887" rx="12.5" ry="12.5" style="stroke:#A80036;stroke-width:1.5;" width="68" x="155" y="272.7773"/><text fill="#000000" font-family="sans-serif" font-size="12" lengthAdjust="spacing" textLength="48" x="165" y="296.5293">退出程序</text><ellipse cx="189" cy="340.166" fill="#FFFFFF" filter="url(#f76x414hcwpzf)" rx="11" ry="11" style="stroke:#000000;stroke-width:1.0;"/><ellipse cx="189" cy="340.166" fill="#000000" rx="6" ry="6" style="stroke:#7F7F7F;stroke-width:1.0;"/><line style="stroke:#A80036;stroke-width:1.5;" x1="123" x2="123" y1="30" y2="50"/><polygon fill="#A80036" points="119,40,123,50,127,40,123,44" style="stroke:#A80036;stroke-width:1.0;"/><line style="stroke:#A80036;stroke-width:1.5;" x1="61" x2="61" y1="176.7773" y2="196.7773"/><polygon fill="#A80036" points="57,186.7773,61,196.7773,65,186.7773,61,190.7773" style="stroke:#A80036;stroke-width:1.0;"/><line style="stroke:#A80036;stroke-width:1.5;" x1="72.5" x2="61" y1="118.3887" y2="118.3887"/><line style="stroke:#A80036;stroke-width:1.5;" x1="61" x2="61" y1="118.3887" y2="140.3887"/><polygon fill="#A80036" points="57,130.3887,61,140.3887,65,130.3887,61,134.3887" style="stroke:#A80036;stroke-width:1.0;"/><line style="stroke:#A80036;stroke-width:1.5;" x1="173.5" x2="185" y1="118.3887" y2="118.3887"/><line style="stroke:#A80036;stroke-width:1.5;" x1="185" x2="185" y1="118.3887" y2="140.3887"/><polygon fill="#A80036" points="181,130.3887,185,140.3887,189,130.3887,185,134.3887" style="stroke:#A80036;stroke-width:1.0;"/><line style="stroke:#A80036;stroke-width:1.5;" x1="185" x2="185" y1="176.7773" y2="223.7773"/><line style="stroke:#A80036;stroke-width:1.5;" x1="185" x2="123" y1="223.7773" y2="223.7773"/><line style="stroke:#A80036;stroke-width:1.5;" x1="123" x2="123" y1="223.7773" y2="238.7773"/><polygon fill="#A80036" points="119,228.7773,123,238.7773,127,228.7773,123,232.7773" style="stroke:#A80036;stroke-width:1.0;"/><line style="stroke:#A80036;stroke-width:1.5;" x1="123" x2="123" y1="86.3887" y2="106.3887"/><polygon fill="#A80036" points="119,96.3887,123,106.3887,127,96.3887,123,100.3887" style="stroke:#A80036;stroke-width:1.0;"/><line style="stroke:#A80036;stroke-width:1.5;" x1="57" x2="57" y1="309.166" y2="329.166"/><polygon fill="#A80036" points="53,319.166,57,329.166,61,319.166,57,323.166" style="stroke:#A80036;stroke-width:1.0;"/><line style="stroke:#A80036;stroke-width:1.5;" x1="189" x2="189" y1="309.166" y2="329.166"/><polygon fill="#A80036" points="185,319.166,189,329.166,193,319.166,189,323.166" style="stroke:#A80036;stroke-width:1.0;"/><line style="stroke:#A80036;stroke-width:1.5;" x1="67" x2="57" y1="250.7773" y2="250.7773"/><line style="stroke:#A80036;stroke-width:1.5;" x1="57" x2="57" y1="250.7773" y2="272.7773"/><polygon fill="#A80036" points="53,262.7773,57,272.7773,61,262.7773,57,266.7773" style="stroke:#A80036;stroke-width:1.0;"/><line style="stroke:#A80036;stroke-width:1.5;" x1="179" x2="189" y1="250.7773" y2="250.7773"/><line style="stroke:#A80036;stroke-width:1.5;" x1="189" x2="189" y1="250.7773" y2="272.7773"/><polygon fill="#A80036" points="185,262.7773,189,272.7773,193,262.7773,189,266.7773" style="stroke:#A80036;stroke-width:1.0;"/><!--MD5=[8b92621aec110841d655d5c5e8522a0c]
@startuml
start
:传入头结点与目标元素;
if (链表是否为空？) then (yes)
    :退出程序;
    stop
else (no)
    :从头结点开始逐级遍历;
endif
if (是否找到目标元素) then(yes)
    :返回当前结点;
    stop
else (no)
    :退出程序;
    stop
endif
@enduml

PlantUML version 1.2021.7(Sun May 23 20:40:07 CST 2021)
(GPL source distribution)
Java Runtime: OpenJDK Runtime Environment
JVM: OpenJDK 64-Bit Server VM
Default Encoding: GBK
Language: zh
Country: CN
--></g></svg>